<svg width="14" height="14" viewBox="0 0 14 14" fill="none" xmlns="http://www.w3.org/2000/svg">
<path d="M7 1.75C7.69619 1.75 8.36387 2.02656 8.85616 2.51884C9.34844 3.01113 9.625 3.67881 9.625 4.375C9.625 5.07119 9.34844 5.73887 8.85616 6.23116C8.36387 6.72344 7.69619 7 7 7C6.30381 7 5.63613 6.72344 5.14384 6.23116C4.65156 5.73887 4.375 5.07119 4.375 4.375C4.375 3.67881 4.65156 3.01113 5.14384 2.51884C5.63613 2.02656 6.30381 1.75 7 1.75ZM7 8.3125C9.90063 8.3125 12.25 9.48719 12.25 10.9375V12.25H1.75V10.9375C1.75 9.48719 4.09938 8.3125 7 8.3125Z" fill="currentColor"/>
</svg>
