<svg width="20" height="20" viewBox="0 0 20 20" xmlns="http://www.w3.org/2000/svg">
  <path fill-rule="evenodd" d="M1.94604 16.1079C0.975356 16.1079 0.636371 14.82 1.48053 14.3422C1.84031 14.1386 2.15118 13.8587 2.39129 13.5222C2.63141 13.1857 2.79496 12.8007 2.87046 12.3942L2.89029 12.2592L2.89123 9.45479C2.94881 8.22149 3.3078 7.02109 3.93678 5.95868C4.56577 4.89627 5.44558 4.00422 6.4992 3.36062L6.73337 3.22276L6.74282 3.18215C6.87638 2.61752 7.17995 2.10745 7.61255 1.72078C8.04515 1.33411 8.58595 1.08945 9.16198 1.01983L9.33383 1.00378L9.50002 1C10.7823 1 11.8663 1.85265 12.2147 3.02163L12.2582 3.1831L12.2657 3.2237C13.3066 3.81093 14.1937 4.63639 14.8541 5.63247C15.5145 6.62856 15.9296 7.76692 16.0654 8.95434L16.0918 9.22533L16.1097 9.49822V12.2658L16.1296 12.3942C16.2589 13.09 16.6439 13.7121 17.2088 14.1383L17.3665 14.2487L17.5195 14.3422C18.3316 14.8021 18.0483 16.0097 17.1635 16.1023L17.054 16.1079H1.94604ZM16.4389 14.9749H2.56131C2.84681 14.7467 3.1002 14.4795 3.31366 14.1803C3.64982 13.7092 3.87879 13.1702 3.9845 12.6012C3.98711 12.5871 3.98945 12.573 3.99153 12.5589L4.01136 12.4238C4.01935 12.3694 4.02337 12.3145 4.02338 12.2596L4.02432 9.48248C4.07693 8.443 4.38145 7.43176 4.91181 6.53593C5.44495 5.63542 6.19009 4.87891 7.08232 4.3322L7.30822 4.19921C7.5756 4.0418 7.76673 3.78163 7.83702 3.47942L7.84591 3.44119C7.92632 3.1029 8.1084 2.79733 8.36767 2.56559C8.62406 2.33642 8.94376 2.19033 9.28462 2.1464L9.39947 2.13567L9.51128 2.13313C10.2694 2.13807 10.9128 2.6408 11.125 3.33259L11.1524 3.43435C11.2144 3.76242 11.4181 4.04648 11.709 4.21059C12.594 4.70988 13.3482 5.41172 13.9097 6.25863C14.4696 7.10304 14.8221 8.06771 14.9386 9.07406L14.9623 9.31755L14.9766 9.53543V12.2658C14.9766 12.3237 14.9811 12.3815 14.9899 12.4387L15.0097 12.5671C15.0115 12.5785 15.0134 12.5899 15.0155 12.6012C15.1898 13.5389 15.6958 14.3811 16.4389 14.9749Z" fill="currentColor" />
  <path d="M5.94346 16.7689C5.827 16.7689 5.73793 16.8736 5.76588 16.9866C6.11427 18.3959 7.5473 19.4517 9.26216 19.4517C10.977 19.4517 12.4101 18.3959 12.7584 16.9866C12.7864 16.8735 12.6973 16.7689 12.5809 16.7689H11.6797C11.5972 16.7689 11.5252 16.8228 11.4941 16.8992C11.2071 17.6035 10.4095 18.2242 9.26216 18.2242C8.1148 18.2242 7.31724 17.6035 7.03021 16.8992C6.99907 16.8228 6.92709 16.7689 6.8446 16.7689H5.94346Z" fill="currentColor"/>
</svg>
