<svg width="16" height="16" viewBox="0 0 16 16" xmlns="http://www.w3.org/2000/svg">
  <path d="M3.8 2.8L12.2 2.8L12.2 12.3101L8.86193 10.4893C8.32467 10.1963 7.67533 10.1963 7.13807 10.4893L3.8 12.3101L3.8 2.8ZM3.5 1.5C2.94772 1.5 2.5 1.94772 2.5 2.5L2.5 12.8155C2.5 13.5745 3.31248 14.0568 3.97885 13.6934L7.76057 11.6306C7.90981 11.5492 8.09019 11.5492 8.23943 11.6306L12.0211 13.6934C12.6875 14.0568 13.5 13.5745 13.5 12.8155L13.5 2.5C13.5 1.94772 13.0523 1.5 12.5 1.5L3.5 1.5Z" fill="currentColor" />
</svg>
