<svg width="20" height="21" viewBox="0 0 20 21" xmlns="http://www.w3.org/2000/svg">
  <path d="M7.9805 3.47754C8.32568 3.47754 8.6055 3.19772 8.6055 2.85254C8.6055 2.50736 8.32568 2.22754 7.9805 2.22754C7.63532 2.22754 7.3555 2.50736 7.3555 2.85254C7.3555 3.19772 7.63532 3.47754 7.9805 3.47754ZM16.177 4.28045L10.0843 13.6345L10.0803 13.6338C9.96454 13.8134 9.69714 13.8095 9.59564 13.6179C9.34645 13.1481 8.96372 12.6514 8.38054 12.1872C8.06861 11.9433 7.61782 11.6799 7.08554 11.4899C6.89432 11.4201 6.83073 11.1727 6.97072 11.018L14.3717 2.7619C14.8335 2.24266 15.6445 2.2268 16.1204 2.77249C16.4846 3.18713 16.4791 3.81708 16.177 4.28045ZM1.91031 19.2585C1.44432 19.1997 1.23315 18.6231 1.54975 18.2522L1.54644 18.2472C2.45838 17.1802 2.76322 15.8798 2.86124 15.0884C2.95927 14.2971 3.30458 13.5378 3.90752 13.031C5.7455 11.49 7.65327 13.0105 7.75523 13.0991L7.75931 13.0998C10.2571 15.1785 8.1604 17.7441 8.1604 17.7441C6.76147 19.584 3.64535 19.4833 1.91031 19.2585ZM11.1368 3.47754C11.1368 3.82272 10.857 4.10254 10.5118 4.10254C10.1666 4.10254 9.88678 3.82272 9.88678 3.47754C9.88678 3.13236 10.1666 2.85254 10.5118 2.85254C10.857 2.85254 11.1368 3.13236 11.1368 3.47754ZM16.6143 8.1247C16.9566 8.0805 17.1983 7.76716 17.1541 7.42482C17.1099 7.08248 16.7965 6.84079 16.4542 6.88499C16.1119 6.92918 15.8702 7.24253 15.9144 7.58487C15.9586 7.9272 16.2719 8.1689 16.6143 8.1247ZM18.4905 9.78368C18.5346 10.126 18.293 10.4394 17.9506 10.4836C17.6083 10.5278 17.2949 10.2861 17.2507 9.94372C17.2065 9.60139 17.4482 9.28804 17.7906 9.24384C18.1329 9.19965 18.4463 9.44134 18.4905 9.78368ZM18.2592 13.0272C18.6015 12.983 18.8432 12.6697 18.799 12.3273C18.7548 11.985 18.4414 11.7433 18.0991 11.7875C17.7568 11.8317 17.5151 12.145 17.5593 12.4874C17.6035 12.8297 17.9168 13.0714 18.2592 13.0272ZM17.9025 15.1744C17.9467 15.5167 17.705 15.8301 17.3627 15.8743C17.0204 15.9185 16.707 15.6768 16.6628 15.3344C16.6186 14.9921 16.8603 14.6787 17.2027 14.6345C17.545 14.5904 17.8583 14.832 17.9025 15.1744ZM15.4645 17.9761C15.8068 17.9319 16.0485 17.6185 16.0043 17.2762C15.9601 16.9339 15.6468 16.6922 15.3045 16.7364C14.9621 16.7806 14.7204 17.0939 14.7646 17.4362C14.8088 17.7786 15.1222 18.0203 15.4645 17.9761ZM13.4071 18.3964C13.4513 18.7388 13.2096 19.0521 12.8673 19.0963C12.525 19.1405 12.2116 18.8988 12.1674 18.5565C12.1232 18.2141 12.3649 17.9008 12.7073 17.8566C13.0496 17.8124 13.3629 18.0541 13.4071 18.3964ZM10.2489 19.6362C10.5912 19.592 10.8329 19.2786 10.7887 18.9363C10.7445 18.5939 10.4312 18.3523 10.0889 18.3964C9.74651 18.4406 9.50482 18.754 9.54902 19.0963C9.59321 19.4387 9.90656 19.6804 10.2489 19.6362ZM6.0405 2.85262C6.0405 3.19779 5.76067 3.47762 5.4155 3.47762C5.07032 3.47762 4.7905 3.19779 4.7905 2.85262C4.7905 2.50744 5.07032 2.22762 5.4155 2.22762C5.76067 2.22762 6.0405 2.50744 6.0405 2.85262ZM3.27393 4.44792C3.6191 4.44792 3.89893 4.1681 3.89893 3.82292C3.89893 3.47774 3.6191 3.19792 3.27393 3.19792C2.92875 3.19792 2.64893 3.47774 2.64893 3.82292C2.64893 4.1681 2.92875 4.44792 3.27393 4.44792ZM2.64893 5.77872C2.64893 6.1239 2.3691 6.40372 2.02393 6.40372C1.67875 6.40372 1.39893 6.1239 1.39893 5.77872C1.39893 5.43354 1.67875 5.15372 2.02393 5.15372C2.3691 5.15372 2.64893 5.43354 2.64893 5.77872ZM2.26776 8.75998C2.61294 8.75998 2.89276 8.48016 2.89276 8.13498C2.89276 7.7898 2.61294 7.50998 2.26776 7.50998C1.92258 7.50998 1.64276 7.7898 1.64276 8.13498C1.64276 8.48016 1.92258 8.75998 2.26776 8.75998ZM4.7905 9.42358C4.7905 9.76876 4.51067 10.0486 4.1655 10.0486C3.82032 10.0486 3.5405 9.76876 3.5405 9.42358C3.5405 9.07841 3.82032 8.79858 4.1655 8.79858C4.51067 8.79858 4.7905 9.07841 4.7905 9.42358ZM6.3623 9.20416C6.70748 9.20416 6.9873 8.92434 6.9873 8.57916C6.9873 8.23398 6.70748 7.95416 6.3623 7.95416C6.01713 7.95416 5.7373 8.23398 5.7373 8.57916C5.7373 8.92434 6.01713 9.20416 6.3623 9.20416Z" fill="currentColor" />
</svg>
