<svg width="17" height="16" viewBox="0 0 17 16" xmlns="http://www.w3.org/2000/svg">
<path d="M13.3335 13V6.62022C13.3335 6.31638 13.0871 6.0701 12.7832 6.07022L4.21657 6.07371C3.9129 6.07383 3.66679 6.32004 3.66679 6.62371V13C3.66679 13.3059 3.91648 13.5556 4.22234 13.5556H12.7779C13.0838 13.5556 13.3335 13.3059 13.3335 13ZM14.0001 13C14.0001 13.6741 13.452 14.2222 12.7779 14.2222H4.22234C3.54829 14.2222 3.00012 13.6741 3.00012 13V4.44444C3.00012 3.77039 3.54829 3.22222 4.22234 3.22222H5.24457C5.35502 3.22222 5.44457 3.13268 5.44457 3.02222V2.2C5.44457 2.08954 5.53411 2 5.64457 2H6.46679C6.57725 2 6.66679 2.08954 6.66679 2.2V3.02222C6.66679 3.13268 6.75633 3.22222 6.86679 3.22222H10.1335C10.2439 3.22222 10.3335 3.13268 10.3335 3.02222V2.2C10.3335 2.08954 10.423 2 10.5335 2H11.3557C11.4661 2 11.5557 2.08954 11.5557 2.2V3.02222C11.5557 3.13268 11.6452 3.22222 11.7557 3.22222H12.7779C13.452 3.22222 14.0001 3.77039 14.0001 4.44444V13Z" fill="currentColor"/>
<path d="M5.44501 8.21108C5.44501 8.10063 5.53455 8.01108 5.64501 8.01108H6.46501C6.57546 8.01108 6.66501 8.10063 6.66501 8.21108V9.03108C6.66501 9.14154 6.57546 9.23108 6.46501 9.23108H5.64501C5.53455 9.23108 5.44501 9.14154 5.44501 9.03108V8.21108Z" fill="currentColor"/>
<path d="M5.44501 10.6581C5.44501 10.5476 5.53455 10.4581 5.64501 10.4581H6.46501C6.57546 10.4581 6.66501 10.5476 6.66501 10.6581V11.4781C6.66501 11.5886 6.57546 11.6781 6.46501 11.6781H5.64501C5.53455 11.6781 5.44501 11.5886 5.44501 11.4781V10.6581Z" fill="currentColor"/>
<path d="M7.89014 8.21108C7.89014 8.10063 7.97968 8.01108 8.09014 8.01108H8.91014C9.02059 8.01108 9.11014 8.10063 9.11014 8.21108V9.03108C9.11014 9.14154 9.02059 9.23108 8.91014 9.23108H8.09014C7.97968 9.23108 7.89014 9.14154 7.89014 9.03108V8.21108Z" fill="currentColor"/>
<path d="M7.89014 10.6581C7.89014 10.5476 7.97968 10.4581 8.09014 10.4581H8.91014C9.02059 10.4581 9.11014 10.5476 9.11014 10.6581V11.4781C9.11014 11.5886 9.02059 11.6781 8.91014 11.6781H8.09014C7.97968 11.6781 7.89014 11.5886 7.89014 11.4781V10.6581Z" fill="currentColor"/>
<path d="M10.3353 8.21108C10.3353 8.10063 10.4248 8.01108 10.5353 8.01108H11.3553C11.4657 8.01108 11.5553 8.10063 11.5553 8.21108V9.03108C11.5553 9.14154 11.4657 9.23108 11.3553 9.23108H10.5353C10.4248 9.23108 10.3353 9.14154 10.3353 9.03108V8.21108Z" fill="currentColor"/>
<path d="M10.3353 10.6581C10.3353 10.5476 10.4248 10.4581 10.5353 10.4581H11.3553C11.4657 10.4581 11.5553 10.5476 11.5553 10.6581V11.4781C11.5553 11.5886 11.4657 11.6781 11.3553 11.6781H10.5353C10.4248 11.6781 10.3353 11.5886 10.3353 11.4781V10.6581Z" fill="currentColor"/>
</svg>
