<svg width="26" height="26" viewBox="0 0 26 26" xmlns="http://www.w3.org/2000/svg">
  <path d="M21.7607 8.17058L16.0334 2.2475C15.9574 2.16895 15.8671 2.10666 15.7678 2.06419C15.6685 2.02173 15.562 1.99991 15.4545 2H5.63636C5.20237 2 4.78616 2.1783 4.47928 2.49567C4.1724 2.81303 4 3.24348 4 3.69231V22.3077C4 22.7565 4.1724 23.187 4.47928 23.5043C4.78616 23.8217 5.20237 24 5.63636 24H20.3636C20.7976 24 21.2138 23.8217 21.5207 23.5043C21.8276 23.187 22 22.7565 22 22.3077V8.76923C22.0001 8.65808 21.979 8.548 21.9379 8.44528C21.8969 8.34256 21.8366 8.24922 21.7607 8.17058ZM16.2727 18.0769H9.72727C9.51028 18.0769 9.30217 17.9878 9.14873 17.8291C8.99529 17.6704 8.90909 17.4552 8.90909 17.2308C8.90909 17.0064 8.99529 16.7911 9.14873 16.6324C9.30217 16.4738 9.51028 16.3846 9.72727 16.3846H16.2727C16.4897 16.3846 16.6978 16.4738 16.8513 16.6324C17.0047 16.7911 17.0909 17.0064 17.0909 17.2308C17.0909 17.4552 17.0047 17.6704 16.8513 17.8291C16.6978 17.9878 16.4897 18.0769 16.2727 18.0769ZM16.2727 14.6923H9.72727C9.51028 14.6923 9.30217 14.6032 9.14873 14.4445C8.99529 14.2858 8.90909 14.0706 8.90909 13.8462C8.90909 13.6217 8.99529 13.4065 9.14873 13.2478C9.30217 13.0891 9.51028 13 9.72727 13H16.2727C16.4897 13 16.6978 13.0891 16.8513 13.2478C17.0047 13.4065 17.0909 13.6217 17.0909 13.8462C17.0909 14.0706 17.0047 14.2858 16.8513 14.4445C16.6978 14.6032 16.4897 14.6923 16.2727 14.6923ZM15.4545 8.76923V4.11538L19.9545 8.76923H15.4545Z" fill="currentColor" />
</svg>
