<svg width="16" height="16" viewBox="0 0 16 16" xmlns="http://www.w3.org/2000/svg">
  <path d="M8 1.5C7.65618 1.5 7.38996 1.79154 7.38996 2.13534V9.38541L5.48301 7.37553C5.24424 7.12387 4.85389 7.12387 4.61511 7.37553C4.38033 7.62299 4.38033 8.02126 4.61511 8.26872L7.56605 11.3789C7.80482 11.6306 8.19518 11.6306 8.43395 11.3789L11.3849 8.26872C11.6197 8.02126 11.6197 7.62299 11.3849 7.37553C11.1461 7.12387 10.7558 7.12387 10.517 7.37553L8.61004 9.38541V2.13534C8.61004 1.79154 8.34381 1.5 8 1.5ZM3.26829 10.9323L3.26829 13.2293H12.7317L12.7317 10.9323C12.7317 10.5814 13.0156 10.297 13.3659 10.297C13.7161 10.297 14 10.5814 14 10.9323L14 13.8647C14 14.2155 13.7161 14.5 13.3659 14.5H2.63415C2.28392 14.5 2 14.2155 2 13.8647V10.9323C2 10.5814 2.28392 10.297 2.63415 10.297C2.98438 10.297 3.26829 10.5814 3.26829 10.9323Z" fill="currentColor" />
</svg>
