<svg width="16" height="16" viewBox="0 0 16 16" fill="none" xmlns="http://www.w3.org/2000/svg">
<path d="M13 13C14.6569 13 16 11.6569 16 10V4C16 2.34315 14.6569 1 13 1H3C1.34315 1 0 2.34315 0 4V10C0 11.5702 1.2064 12.8587 2.7429 12.9891C2.82764 12.9963 2.91339 13 3 13H3.75342L3.51639 14.5109C3.45689 14.8902 3.81822 15.1947 4.18017 15.0572C5.35602 14.6105 6.89138 13.8823 7.91789 13H13ZM7.62133 12C7.57349 12 7.52724 12.0171 7.49097 12.0483L7.26606 12.2416C6.65781 12.7644 5.81266 13.2457 4.97533 13.6364C4.83202 13.7033 4.67431 13.5822 4.69882 13.426L4.8863 12.231C4.90533 12.1097 4.81153 12 4.68872 12H3C1.89543 12 1 11.1046 1 10V4C1 2.89543 1.89543 2 3 2H13C14.1046 2 15 2.89543 15 4V10C15 11.1046 14.1046 12 13 12H7.62133Z" fill="currentColor"/>
<path d="M5 7C5 7.55228 4.55228 8 4 8C3.44772 8 3 7.55228 3 7C3 6.44772 3.44772 6 4 6C4.55228 6 5 6.44772 5 7Z" fill="currentColor"/>
<path d="M9 7C9 7.55228 8.55229 8 8 8C7.44772 8 7 7.55228 7 7C7 6.44772 7.44772 6 8 6C8.55229 6 9 6.44772 9 7Z" fill="currentColor"/>
<path d="M13 7C13 7.55228 12.5523 8 12 8C11.4477 8 11 7.55228 11 7C11 6.44772 11.4477 6 12 6C12.5523 6 13 6.44772 13 7Z" fill="currentColor"/>
</svg>
