<svg width="20" height="20" viewBox="0 0 20 20" xmlns="http://www.w3.org/2000/svg">
  <path d="M8.37992 1.34728C9.03931 0.405569 10.3373 0.176704 11.279 0.836098L17.5962 5.25944C18.5379 5.91884 18.7667 7.21679 18.1073 8.1585L13.0871 15.3283C12.8425 15.6775 12.4224 15.8306 12.0296 15.752L10.6373 17.7404H16.1254C16.5396 17.7404 16.8754 18.0762 16.8754 18.4904C16.8754 18.9046 16.5396 19.2404 16.1254 19.2404H8.50043C8.43434 19.2404 8.37024 19.2318 8.30919 19.2158C8.01177 19.175 7.71934 19.0648 7.45651 18.8807L1.95012 15.0251C1.06726 14.4069 0.852703 13.1901 1.47088 12.3073L3.32519 9.65902C3.11487 9.31635 3.11431 8.86739 3.35962 8.51705L8.37992 1.34728ZM4.50483 10.5895L2.69961 13.1676C2.5566 13.3719 2.60623 13.6534 2.81048 13.7964L8.31687 17.652C8.52112 17.795 8.80263 17.7454 8.94565 17.5411L10.7509 14.963L4.50483 10.5895Z" fill="currentColor" />
</svg>
