<svg width="16" height="16" viewBox="0 0 16 16" fill="none" xmlns="http://www.w3.org/2000/svg">
<path d="M1.81797 2.46187C1.81797 2.10288 2.10898 1.81187 2.46797 1.81187C2.82695 1.81187 3.11797 2.10288 3.11797 2.46186V5.16187C3.11797 5.52085 2.82695 5.81187 2.46797 5.81187C2.10898 5.81187 1.81797 5.52085 1.81797 5.16187V2.46187Z" fill="currentColor"/>
<path d="M5.16797 4.51182C5.52695 4.51182 5.81797 4.80283 5.81797 5.16182C5.81797 5.5208 5.52695 5.81182 5.16797 5.81182L2.46797 5.81187C2.10898 5.81187 1.81797 5.52085 1.81797 5.16187C1.81797 4.80288 2.10898 4.51182 2.46797 4.51182H5.16797Z" fill="currentColor"/>
<path fill-rule="evenodd" clip-rule="evenodd" d="M7.99997 2.64998C6.20462 2.64998 4.61567 3.53368 3.64423 4.89271L2.58663 4.13674C3.79164 2.45095 5.76723 1.34998 7.99997 1.34998C11.6727 1.34998 14.65 4.32728 14.65 7.99998C14.65 11.6727 11.6727 14.65 7.99997 14.65V13.35C10.9547 13.35 13.35 10.9547 13.35 7.99998C13.35 5.04525 10.9547 2.64998 7.99997 2.64998Z" fill="currentColor"/>
<path fill-rule="evenodd" clip-rule="evenodd" d="M1.99998 7.34998C2.35896 7.34998 2.64998 7.64099 2.64998 7.99998C2.64998 8.15249 2.65634 8.30336 2.6688 8.45237C2.6987 8.81011 2.43294 9.12436 2.0752 9.15426C1.71747 9.18417 1.40322 8.91841 1.37332 8.56067C1.35785 8.37568 1.34998 8.18867 1.34998 7.99998C1.34998 7.64099 1.64099 7.34998 1.99998 7.34998ZM2.29125 9.96345C2.61607 9.8106 3.0033 9.95001 3.15614 10.2748C3.28498 10.5486 3.43642 10.8098 3.6081 11.056C3.81344 11.3505 3.74118 11.7557 3.44672 11.961C3.15225 12.1663 2.74709 12.0941 2.54176 11.7996C2.32848 11.4938 2.14018 11.169 1.97987 10.8283C1.82702 10.5035 1.96643 10.1163 2.29125 9.96345ZM4.03895 12.5532C4.24428 12.2588 4.64944 12.1865 4.94391 12.3919C5.19012 12.5635 5.45133 12.715 5.72512 12.8438C6.04994 12.9967 6.18936 13.3839 6.03651 13.7087C5.88366 14.0335 5.49644 14.1729 5.17162 14.0201C4.83094 13.8598 4.5062 13.6715 4.20034 13.4582C3.90587 13.2529 3.83362 12.8477 4.03895 12.5532ZM6.8457 13.9247C6.8756 13.567 7.18985 13.3012 7.54759 13.3312C7.6966 13.3436 7.84746 13.35 7.99997 13.35C8.35895 13.35 8.64999 13.641 8.64999 14C8.64999 14.359 8.35895 14.65 7.99997 14.65C7.81127 14.65 7.62428 14.6421 7.43929 14.6266C7.08155 14.5967 6.81579 14.2825 6.8457 13.9247Z" fill="currentColor"/>
<path fill-rule="evenodd" clip-rule="evenodd" d="M7.87803 4.51182C8.29224 4.51182 8.62803 4.8476 8.62803 5.26182V7.95116L10.4084 9.73149C10.7013 10.0244 10.7013 10.4993 10.4084 10.7921C10.1155 11.085 9.64059 11.085 9.3477 10.7921L7.3477 8.79215C7.20705 8.65149 7.12803 8.46073 7.12803 8.26182V5.26182C7.12803 4.8476 7.46381 4.51182 7.87803 4.51182Z" fill="currentColor"/>
</svg>
