<svg width="24" height="24" viewBox="0 0 24 24" xmlns="http://www.w3.org/2000/svg">
  <path d="M12.4371 2.05501C12.7288 2.12836 12.9741 2.23985 13.5531 2.67115L20.9105 8.15196C21.3517 8.48067 21.4918 8.61697 21.6265 8.7907C21.7613 8.96443 21.8546 9.14875 21.9143 9.35881C21.974 9.56888 22 9.76042 22 10.3028V19.6126C22 20.4427 21.9116 20.7438 21.7456 21.0473C21.5796 21.3508 21.336 21.5889 21.0256 21.7513C20.7152 21.9136 20.4073 22 19.5582 22H13.9048V17.8097C13.9048 16.7812 13.052 15.9474 12 15.9474C10.948 15.9474 10.0952 16.7812 10.0952 17.8097V22H4.4418C3.59273 22 3.28484 21.9136 2.97443 21.7513C2.66403 21.5889 2.42042 21.3508 2.25441 21.0473C2.08841 20.7438 2 20.4427 2 19.6126V10.3028C2 9.76042 2.026 9.56888 2.08569 9.35881C2.14537 9.14875 2.23874 8.96443 2.37347 8.7907C2.5082 8.61697 2.64827 8.48067 3.08953 8.15196L10.4469 2.67115C11.0259 2.23985 11.2712 2.12836 11.5629 2.05501C11.8546 1.98166 12.1454 1.98166 12.4371 2.05501Z" fill="currentColor" />
</svg>
