<svg width="14" height="14" viewBox="0 0 14 14" xmlns="http://www.w3.org/2000/svg">
  <path d="M7.1661 1.17147C8.72904 -0.391468 11.2631 -0.391468 12.826 1.17147C14.389 2.73442 14.389 5.26845 12.826 6.83139L11.2215 8.43592C9.65854 9.99886 7.12451 9.99886 5.56157 8.43592C5.30773 8.18208 5.30773 7.77052 5.56157 7.51668C5.81541 7.26284 6.22696 7.26284 6.48081 7.51668C7.53607 8.57194 9.24698 8.57194 10.3022 7.51668L11.9068 5.91215C12.962 4.85689 12.962 3.14597 11.9068 2.09071C10.8515 1.03545 9.1406 1.03545 8.08534 2.09071L6.64855 3.5275C6.39471 3.78134 5.98315 3.78134 5.72931 3.5275C5.47547 3.27366 5.47547 2.8621 5.72931 2.60826L7.1661 1.17147ZM7.51522 6.48041C6.45996 5.42515 4.74904 5.42516 3.69378 6.48042L2.08925 8.08495C1.03399 9.14021 1.03399 10.8511 2.08925 11.9064C3.14451 12.9616 4.85542 12.9616 5.91068 11.9064L7.34747 10.4696C7.60131 10.2158 8.01287 10.2158 8.26671 10.4696C8.52055 10.7234 8.52055 11.135 8.26671 11.3888L6.82992 12.8256C5.26698 14.3886 2.73295 14.3886 1.17001 12.8256C-0.392933 11.2627 -0.392933 8.72865 1.17001 7.16571L2.77454 5.56118C4.33749 3.99824 6.87152 3.99823 8.43446 5.56118C8.6883 5.81502 8.6883 6.22657 8.43446 6.48041C8.18062 6.73426 7.76906 6.73426 7.51522 6.48041Z" fill="currentColor" />
</svg>
