<svg width="14" height="14" viewBox="0 0 14 14" xmlns="http://www.w3.org/2000/svg">
  <path d="M13.5 10.6562C13.5 11.105 13.112 11.4687 12.6333 11.4687L1.36667 11.4687C0.88802 11.4687 0.5 11.105 0.5 10.6562L0.5 3.34375C0.5 2.89502 0.888019 2.53125 1.36667 2.53125H12.6333C13.112 2.53125 13.5 2.89502 13.5 3.34375L13.5 10.6562ZM12.5467 3.83753L7.29691 7.46665C7.12315 7.59633 6.87688 7.59633 6.70312 7.46665L1.45333 3.83751L1.45333 10.575L12.5467 10.575L12.5467 3.83753ZM11.5688 3.425L2.43125 3.425L7.00002 6.54584L11.5688 3.425Z" fill="currentColor" />
</svg>
