<svg width="8" height="16" viewBox="0 0 8 16" xmlns="http://www.w3.org/2000/svg">
  <path d="M5.5 2.48267C5.5 3.31109 4.82843 3.98267 4 3.98267C3.17157 3.98267 2.5 3.31109 2.5 2.48267C2.5 1.65424 3.17157 0.982666 4 0.982666C4.82843 0.982666 5.5 1.65424 5.5 2.48267ZM5.5 8C5.5 8.82843 4.82843 9.5 4 9.5C3.17157 9.5 2.5 8.82843 2.5 8C2.5 7.17157 3.17157 6.5 4 6.5C4.82843 6.5 5.5 7.17157 5.5 8ZM4 14.9827C4.82843 14.9827 5.5 14.3111 5.5 13.4827C5.5 12.6542 4.82843 11.9827 4 11.9827C3.17157 11.9827 2.5 12.6542 2.5 13.4827C2.5 14.3111 3.17157 14.9827 4 14.9827Z" fill="currentColor" />
</svg>
