<svg width="16" height="16" viewBox="0 0 16 16" xmlns="http://www.w3.org/2000/svg">
  <path d="M10.3132 2.67458L10.3132 2.67461L9.05211 3.93566L12.064 6.94648L13.3256 5.68489L13.3256 5.68488C13.4105 5.59997 13.453 5.55751 13.487 5.51981C14.1747 4.75851 14.1746 3.60056 13.4868 2.83939C13.4527 2.80169 13.4103 2.75924 13.3253 2.67434C13.2404 2.58941 13.1979 2.54695 13.1602 2.51289C12.3985 1.8252 11.2398 1.8253 10.4783 2.51314C10.4406 2.54719 10.3981 2.58966 10.3132 2.67458ZM11.4252 7.58528L8.41331 4.57446L2.48412 10.5037L2.0659 13.0121C2.00379 13.3846 1.97274 13.5708 2.03052 13.7055C2.0811 13.8234 2.17507 13.9173 2.293 13.9679C2.42773 14.0257 2.61405 13.9946 2.9867 13.9326L5.49603 13.5145L11.4252 7.58528Z" fill="currentColor" />
</svg>
