<svg width="16" height="16" viewBox="0 0 16 16" xmlns="http://www.w3.org/2000/svg">
  <path d="M7 2.50006C7 1.94778 7.44772 1.50006 8 1.50006C8.55229 1.50006 9 1.94778 9 2.50006V13.5001C9 14.0523 8.55229 14.5001 8 14.5001C7.44772 14.5001 7 14.0523 7 13.5001V2.50006Z" fill="currentColor" />
  <path d="M13.5 7.00006C14.0523 7.00006 14.5 7.44778 14.5 8.00006C14.5 8.55235 14.0523 9.00006 13.5 9.00006L2.5 9.00006C1.94771 9.00006 1.5 8.55234 1.5 8.00006C1.5 7.44778 1.94772 7.00006 2.5 7.00006L13.5 7.00006Z" fill="currentColor" />
</svg>
