<svg width="16" height="16" viewBox="0 0 16 16" xmlns="http://www.w3.org/2000/svg">
<path  d="M13.9027 9.36714C14.1115 9.50029 14.25 9.73396 14.25 9.99998C14.25 10.0041 14.25 10.0082 14.2499 10.0123C14.2532 10.2085 14.18 10.4058 14.0303 10.5555L11.5555 13.0303C11.2626 13.3232 10.7877 13.3232 10.4948 13.0303C10.2019 12.7374 10.2019 12.2626 10.4948 11.9697L11.7145 10.75H5.74999C3.54085 10.75 1.74999 8.95912 1.74999 6.74998C1.74999 4.54084 3.54085 2.74998 5.74999 2.74998L8.49999 2.74998C8.91421 2.74998 9.24999 3.08577 9.24999 3.49998C9.24999 3.91419 8.91421 4.24998 8.49999 4.24998L5.74999 4.24998C4.36928 4.24998 3.24999 5.36927 3.24999 6.74998C3.24999 8.13069 4.36928 9.24998 5.74999 9.24998H11.6642L10.4948 8.08058C10.2019 7.78769 10.2019 7.31282 10.4948 7.01992C10.7877 6.72703 11.2626 6.72703 11.5555 7.01992L13.9027 9.36714Z" fill="currentColor"/>
</svg>
