<svg width="16" height="16" viewBox="0 0 16 16" fill="none" xmlns="http://www.w3.org/2000/svg">
<path d="M8.00673 1.5C8.47714 1.50533 8.94562 1.562 9.40514 1.66867C9.5029 1.69137 9.5914 1.74528 9.65827 1.82285C9.72514 1.90042 9.76705 1.99779 9.77813 2.10135L9.88708 3.11938C9.90247 3.26291 9.95002 3.40067 10.0259 3.52159C10.1018 3.64252 10.2039 3.74322 10.3241 3.81559C10.4442 3.88797 10.579 3.93 10.7176 3.9383C10.8562 3.9466 10.9947 3.92095 11.1221 3.8634L12.0193 3.45339C12.1105 3.41162 12.2119 3.40035 12.3094 3.42113C12.407 3.44191 12.496 3.49372 12.5641 3.56939C13.2128 4.29009 13.696 5.15446 13.9772 6.09746C14.0066 6.19662 14.0056 6.30284 13.9744 6.4014C13.9432 6.49995 13.8832 6.58595 13.8029 6.64748L13.0075 7.25816C12.8955 7.34361 12.8044 7.45532 12.7415 7.58423C12.6787 7.71315 12.646 7.85565 12.646 8.00018C12.646 8.14471 12.6787 8.28721 12.7415 8.41613C12.8044 8.54504 12.8955 8.65675 13.0075 8.7422L13.8042 9.35222C13.8846 9.41379 13.9446 9.4999 13.9759 9.59859C14.0071 9.69728 14.008 9.80365 13.9785 9.9029C13.6973 10.8458 13.2144 11.7101 12.566 12.431C12.498 12.5066 12.4092 12.5585 12.3118 12.5794C12.2143 12.6003 12.113 12.5892 12.0219 12.5476L11.1208 12.1363C10.9936 12.0783 10.8551 12.0523 10.7165 12.0603C10.5779 12.0683 10.443 12.1102 10.3228 12.1825C10.2026 12.2548 10.1005 12.3555 10.0247 12.4765C9.94888 12.5975 9.90152 12.7354 9.88644 12.879L9.77749 13.8963C9.76661 13.9987 9.72563 14.095 9.66013 14.1723C9.59463 14.2495 9.50782 14.3037 9.41155 14.3277C8.48326 14.5574 7.5161 14.5574 6.58781 14.3277C6.49142 14.3039 6.40447 14.2496 6.33885 14.1724C6.27323 14.0952 6.23215 13.9988 6.22123 13.8963L6.11292 12.8803C6.09718 12.7372 6.04941 12.5999 5.97342 12.4794C5.89743 12.359 5.79535 12.2588 5.67538 12.1868C5.55541 12.1148 5.42089 12.0732 5.28261 12.0651C5.14434 12.057 5.00618 12.0828 4.87921 12.1403L3.97813 12.551C3.88691 12.5927 3.78548 12.6038 3.68789 12.5829C3.59029 12.562 3.50136 12.5101 3.43338 12.4343C2.78485 11.7126 2.30212 10.8474 2.02151 9.90357C1.99197 9.80431 1.99288 9.69795 2.02412 9.59926C2.05536 9.50057 2.11538 9.41446 2.19583 9.35289L2.99245 8.7422C3.10451 8.65675 3.19564 8.54504 3.25845 8.41613C3.32127 8.28721 3.354 8.14471 3.354 8.00018C3.354 7.85565 3.32127 7.71315 3.25845 7.58423C3.19564 7.45532 3.10451 7.34361 2.99245 7.25816L2.19583 6.64881C2.11538 6.58724 2.05536 6.50112 2.02412 6.40243C1.99288 6.30374 1.99197 6.19738 2.02151 6.09813C2.30274 5.15512 2.78591 4.29075 3.43466 3.57006C3.50271 3.49439 3.59169 3.44258 3.68928 3.4218C3.78687 3.40101 3.88825 3.41229 3.97941 3.45405L4.87665 3.86407C5.0042 3.92158 5.14294 3.94718 5.28172 3.93879C5.4205 3.93041 5.55546 3.88828 5.67575 3.81579C5.79604 3.74331 5.89831 3.64248 5.97435 3.52142C6.05038 3.40035 6.09806 3.26242 6.11356 3.11871L6.22251 2.10135C6.2335 1.99758 6.27545 1.9 6.34246 1.82229C6.40946 1.74457 6.49817 1.69062 6.59614 1.668C7.0595 1.56148 7.53222 1.50517 8.00673 1.5ZM7.99904 6.00013C7.48912 6.00013 7.00008 6.21084 6.63952 6.58593C6.27895 6.96101 6.07639 7.46973 6.07639 8.00018C6.07639 8.53063 6.27895 9.03935 6.63952 9.41443C7.00008 9.78952 7.48912 10.0002 7.99904 10.0002C8.50896 10.0002 8.99799 9.78952 9.35856 9.41443C9.71913 9.03935 9.92169 8.53063 9.92169 8.00018C9.92169 7.46973 9.71913 6.96101 9.35856 6.58593C8.99799 6.21084 8.50896 6.00013 7.99904 6.00013Z" fill="currentColor"/>
</svg>
