<svg width="16" height="16" viewBox="0 0 16 16" fill="none" xmlns="http://www.w3.org/2000/svg">
<path d="M8 11.2C9.76731 11.2 11.2 9.76731 11.2 8C11.2 6.23269 9.76731 4.8 8 4.8C6.23269 4.8 4.8 6.23269 4.8 8C4.8 9.76731 6.23269 11.2 8 11.2Z" fill="currentColor"/>
<path d="M12.8 8.00008C12.8 7.71289 13.0328 7.48008 13.32 7.48008H15.48C15.7672 7.48008 16 7.71289 16 8.00008C16 8.28727 15.7672 8.52008 15.48 8.52008H13.32C13.0328 8.52008 12.8 8.28727 12.8 8.00008Z" fill="currentColor"/>
<path d="M8.00002 12.8C8.28721 12.8 8.52002 13.0328 8.52002 13.32V15.48C8.52002 15.7672 8.28721 16 8.00002 16C7.71283 16 7.48002 15.7672 7.48002 15.48V13.32C7.48002 13.0328 7.71283 12.8 8.00002 12.8Z" fill="currentColor"/>
<path d="M4.60594 11.3941C4.80901 11.5972 4.80901 11.9264 4.60594 12.1295L3.418 13.3175C3.21493 13.5205 2.88568 13.5205 2.68261 13.3175C2.47953 13.1144 2.47953 12.7851 2.68261 12.5821L3.87055 11.3941C4.07362 11.191 4.40286 11.191 4.60594 11.3941Z" fill="currentColor"/>
<path d="M4.60588 4.60604C4.40281 4.80911 4.07356 4.80911 3.87049 4.60603L2.68255 3.4181C2.47948 3.21502 2.47948 2.88578 2.68255 2.6827C2.88562 2.47963 3.21487 2.47963 3.41794 2.6827L4.60588 3.87064C4.80895 4.07372 4.80895 4.40296 4.60588 4.60604Z" fill="currentColor"/>
<path d="M0 8.00008C0 7.71289 0.232812 7.48008 0.52 7.48008H2.68C2.96719 7.48008 3.2 7.71289 3.2 8.00008C3.2 8.28727 2.96719 8.52008 2.68 8.52008H0.520001C0.232812 8.52008 0 8.28727 0 8.00008Z" fill="currentColor"/>
<path d="M8.00002 0C8.28721 1.56917e-08 8.52002 0.232812 8.52002 0.52V2.68C8.52002 2.96719 8.28721 3.2 8.00002 3.2C7.71283 3.2 7.48002 2.96719 7.48002 2.68V0.520001C7.48002 0.232812 7.71283 -1.56917e-08 8.00002 0Z" fill="currentColor"/>
<path d="M13.3174 2.6826C13.5204 2.88567 13.5204 3.21492 13.3174 3.41799L12.1294 4.60593C11.9264 4.809 11.5971 4.809 11.394 4.60593C11.191 4.40286 11.191 4.07361 11.394 3.87054L12.582 2.6826C12.785 2.47952 13.1143 2.47952 13.3174 2.6826Z" fill="currentColor"/>
<path d="M13.3174 13.3176C13.1143 13.5206 12.7851 13.5206 12.582 13.3176L11.3941 12.1296C11.191 11.9265 11.191 11.5973 11.3941 11.3942C11.5971 11.1912 11.9264 11.1912 12.1295 11.3942L13.3174 12.5822C13.5205 12.7852 13.5205 13.1145 13.3174 13.3176Z" fill="currentColor"/>
</svg>
