<svg width="17" height="16" viewBox="0 0 17 16" fill="none" xmlns="http://www.w3.org/2000/svg">
<path d="M13.8658 4.99042C13.8314 5.10593 13.7686 5.21478 13.6774 5.30599L11.2026 7.78086C10.9097 8.07375 10.4348 8.07375 10.1419 7.78086C9.84901 7.48797 9.84901 7.01309 10.1419 6.7202L11.3375 5.52462H3.85443C3.44079 5.52462 3.10547 5.1893 3.10547 4.77566C3.10547 4.36201 3.44079 4.02669 3.85443 4.02669H11.3375L10.1419 2.83111C9.84901 2.53822 9.84901 2.06334 10.1419 1.77045C10.4348 1.47756 10.9097 1.47756 11.2026 1.77045L13.6774 4.24533C13.8144 4.38229 13.8873 4.55906 13.8962 4.7384C13.8974 4.76322 13.8974 4.78809 13.8962 4.81292C13.8932 4.87432 13.8828 4.93378 13.8658 4.99042Z" fill="currentColor"/>
<path d="M3.13677 11.4403C3.17118 11.5558 3.23397 11.6646 3.32514 11.7558L5.80001 14.2306C6.09291 14.5235 6.56778 14.5235 6.86067 14.2306C7.15357 13.9377 7.15357 13.4629 6.86067 13.17L5.66509 11.9744H13.1481C13.5618 11.9744 13.8971 11.6391 13.8971 11.2254C13.8971 10.8118 13.5618 10.4765 13.1481 10.4765H5.66509L6.86067 9.28088C7.15357 8.98799 7.15357 8.51311 6.86067 8.22022C6.56778 7.92733 6.09291 7.92733 5.80001 8.22022L3.32514 10.6951C3.18789 10.8323 3.11495 11.0096 3.10633 11.1893C3.10518 11.2134 3.10518 11.2376 3.10634 11.2617C3.10929 11.3235 3.11973 11.3834 3.13677 11.4403Z" fill="currentColor"/>
</svg>
