<svg width="12" height="12" viewBox="0 0 12 12" fill="none" xmlns="http://www.w3.org/2000/svg">
<path d="M10.3061 4.63454C10.5042 4.63454 10.6919 4.72082 10.869 4.89338C11.0462 5.06596 11.1348 5.2559 11.1348 5.4632V6.01274C11.1348 6.07931 11.1295 6.13815 11.1189 6.18927C11.1083 6.24039 11.0933 6.29236 11.0738 6.34518L9.53369 9.94411C9.46819 10.1212 9.3573 10.2593 9.201 10.3582C9.04471 10.4572 8.87015 10.5066 8.6773 10.5066L4.11399 10.5066C3.8819 10.5066 3.68576 10.4288 3.52559 10.2732C3.36541 10.1176 3.28531 9.91922 3.28531 9.67796L3.28531 4.9825C3.28531 4.86676 3.30835 4.75506 3.35443 4.64739C3.40051 4.53973 3.46262 4.44713 3.54074 4.36958L5.27636 1.80741C5.42056 1.65687 5.59164 1.5593 5.7896 1.51469C5.98755 1.4701 6.14416 1.48773 6.25945 1.56757C6.42057 1.66577 6.51981 1.8178 6.55717 2.02369C6.59454 2.22958 6.59472 2.43494 6.55771 2.63977L6.21608 4.63454L10.3061 4.63454ZM1.68641 10.5066C1.46447 10.5066 1.2718 10.4251 1.1084 10.2622C0.944986 10.0992 0.863281 9.90585 0.863281 9.68219L0.863281 5.45501C0.863281 5.23484 0.944776 5.04304 1.10776 4.87964C1.27075 4.71623 1.46407 4.63454 1.68773 4.63454H1.80408C2.02512 4.63454 2.21735 4.71623 2.38076 4.87964C2.54417 5.04304 2.62588 5.23484 2.62588 5.45501L2.62588 9.68747C2.62588 9.91112 2.54417 10.1036 2.38076 10.2648C2.21735 10.426 2.02468 10.5066 1.80275 10.5066H1.68641Z" fill="currentColor"/>
</svg>
