<svg width="14" height="14" viewBox="0 0 14 14" xmlns="http://www.w3.org/2000/svg">
  <path d="M0.751023 8.79543C0.33681 8.79543 0.00101948 9.13121 0.00101471 9.54542L0.000976563 12.8459C0.000971794 13.3706 0.426301 13.7959 0.950974 13.7959L13.049 13.796C13.5737 13.796 13.999 13.3707 13.999 12.846L13.9991 9.54548C13.9991 9.13126 13.6633 8.79547 13.2491 8.79547C12.8349 8.79546 12.4991 9.13124 12.4991 9.54546L12.4991 12.296L1.50098 12.2959L1.50101 9.54544C1.50102 9.13123 1.16524 8.79544 0.751023 8.79543Z" fill="currentColor" />
  <path d="M3.4737 4.93771C3.18072 4.6449 3.18058 4.17003 3.47339 3.87705L6.40682 0.941893C6.73958 0.608934 7.27958 0.609829 7.61124 0.943885L10.5251 3.87881C10.8169 4.17276 10.8152 4.64763 10.5213 4.93946C10.2273 5.2313 9.75246 5.22959 9.46062 4.93564L7.00651 2.46379L4.53436 4.9374C4.24155 5.23038 3.76668 5.23052 3.4737 4.93771Z" fill="currentColor" />
  <path d="M6.99424 10.6693C6.58002 10.6693 6.24423 10.3335 6.24423 9.91932L6.25328 2.81396C6.25328 2.39975 6.58906 2.06396 7.00328 2.06396C7.41749 2.06395 7.75328 2.39973 7.75328 2.81395L7.74423 9.9193C7.74423 10.3335 7.40845 10.6693 6.99424 10.6693Z" fill="currentColor" />
</svg>
