<svg width="70" height="70" viewBox="0 0 70 70" fill="none" xmlns="http://www.w3.org/2000/svg">
  <ellipse cx="23.3327" cy="34.9999" rx="2.91667" ry="2.91667" fill="white" />
  <rect x="48.0098" y="1.93323" width="5.83333" height="5.83333" transform="rotate(64 48.0098 1.93323)" fill="#8FCDFF" />
  <path d="M65.875 27.9585L69.9998 32.0833L65.875 36.2081L61.7502 32.0833L65.875 27.9585Z" fill="#0D99FF" />
  <rect x="21.334" y="13.8923" width="5.83333" height="5.83333" transform="rotate(16 21.334 13.8923)" fill="#9859FF" />
  <rect x="15.582" y="4.74768" width="5.83333" height="5.83333" transform="rotate(59 15.582 4.74768)" fill="#E3F3FE" />
  <path d="M59.0621 12.5388L53.8635 12.333C53.615 12.3231 53.4857 12.0327 53.6446 11.8414L56.9702 7.84035L55.5595 2.83254C55.4921 2.59321 55.7284 2.38045 55.9594 2.47252L60.7923 4.39893L65.1191 1.5098C65.3259 1.37172 65.6012 1.5307 65.585 1.77882L65.2464 6.97049L69.3311 10.1927C69.5264 10.3467 69.4603 10.6577 69.2193 10.719L64.177 12.0012L62.3748 16.8818C62.2887 17.1151 61.9724 17.1483 61.8397 16.938L59.0621 12.5388Z" fill="#3FF3D3" />
  <path d="M45.2104 37.7639L42.9516 33.0771C42.8436 32.8531 43.0394 32.6026 43.2828 32.6532L48.3769 33.7111L52.1362 30.1145C52.3159 29.9426 52.6147 30.0514 52.6418 30.2985L53.2098 35.4701L57.7921 37.9341C58.0111 38.0518 58 38.3696 57.7733 38.4718L53.0303 40.6101L52.1029 45.7295C52.0586 45.9742 51.753 46.0618 51.5857 45.8778L48.0864 42.0277L42.931 42.7277C42.6846 42.7612 42.5068 42.4976 42.6302 42.2817L45.2104 37.7639Z" fill="#9859FF" />
  <path d="M33.6707 18.5584L30.2076 14.6758C30.042 14.4902 30.1612 14.1954 30.4091 14.1769L35.5974 13.7898L38.2198 9.29629C38.3451 9.08153 38.6623 9.10371 38.7565 9.33382L40.728 14.1485L45.8119 15.254C46.0549 15.3068 46.1318 15.6153 45.9421 15.7761L41.9722 19.1389L42.4919 24.3156C42.5167 24.563 42.2471 24.7315 42.0356 24.6007L37.6106 21.8643L32.8479 23.9582C32.6202 24.0583 32.3767 23.8539 32.4357 23.6124L33.6707 18.5584Z" fill="#0D99FF" />
  <rect x="50.7559" y="19.595" width="5.83333" height="5.83333" transform="rotate(20 50.7559 19.595)" fill="#E3F3FE" />
  <rect x="60.9297" y="49.2944" width="5.83333" height="5.83333" transform="rotate(84 60.9297 49.2944)" fill="#3FF3D3" />
  <path d="M20.416 26.25L40.8327 46.6667L5.83268 61.25L20.416 26.25Z" fill="#0D99FF" />
  <mask id="mask0_6634_136864" style="mask-type:luminance" maskUnits="userSpaceOnUse" x="5" y="26" width="36" height="36">
    <path d="M20.416 26.25L40.8327 46.6667L5.83268 61.25L20.416 26.25Z" fill="white" />
  </mask>
  <g mask="url(#mask0_6634_136864)">
    <rect x="4.27148" y="38.0632" width="35" height="5.83333" transform="rotate(45 4.27148 38.0632)" fill="#8FCDFF" />
    <rect x="13.0215" y="29.3132" width="35" height="5.83333" transform="rotate(45 13.0215 29.3132)" fill="#8FCDFF" />
    <path d="M30.1973 27.7386L36.0306 10.2386" stroke="#61B9FF" stroke-width="0.5" />
  </g>
</svg>
