<svg width="17" height="12" viewBox="0 0 17 12" xmlns="http://www.w3.org/2000/svg">
  <path id="Vector 389" d="M11.7534 0.233521C10.2725 1.71801 8.09974 3.89026 8.09974 3.89026L10.207 5.99992L12.3142 8.10959L15.9677 4.45186C16.2775 4.1417 16.2775 3.63882 15.9677 3.32865L12.8759 0.23332C12.5658 -0.0771539 12.0633 -0.077158 11.7534 0.233521Z" fill="#A46CFF" />
  <path id="Vector 391" d="M0.232768 4.45184C1.71555 5.93436 3.88529 8.10968 3.88529 8.10968L5.99252 6.00001L8.09976 3.89035L4.44625 0.232624C4.13644 -0.0775411 3.63414 -0.0775414 3.32433 0.232624L0.232567 3.32796C-0.0775489 3.63843 -0.077553 4.14157 0.232768 4.45184Z" fill="#3FF3D3" />
  <path id="Vector 392" d="M12.3137 8.10977C10.9023 6.7007 8.0992 3.89044 8.0992 3.89044L5.99197 6.00011L3.88473 8.10977L7.53825 11.7675C7.84805 12.0777 8.35035 12.0777 8.66016 11.7675L12.3137 8.10977Z" fill="white" />
</svg>
