<svg width="16" height="16" viewBox="0 0 16 16" xmlns="http://www.w3.org/2000/svg">
  <path d="M7.27451 2.87583C7.52169 2.61147 7.64528 2.47929 7.79555 2.43168C7.92723 2.38996 8.07277 2.38996 8.20446 2.43168C8.35472 2.47929 8.47831 2.61147 8.72549 2.87583L12.0151 6.32451C12.3328 6.66431 12.4917 6.83422 12.4994 6.97912C12.5062 7.10494 12.4529 7.22657 12.3557 7.30735C12.2438 7.40039 12.0105 7.40039 11.544 7.40039L4.45601 7.40039C3.98949 7.40039 3.75624 7.40039 3.64429 7.30735C3.54709 7.22657 3.49383 7.10494 3.50057 6.97912C3.50833 6.83421 3.66719 6.66431 3.98492 6.32451L7.27451 2.87583Z" fill="#0D99FF" />
  <path d="M7.27451 13.125C7.52169 13.3893 7.64528 13.5215 7.79555 13.5691C7.92723 13.6108 8.07277 13.6108 8.20446 13.5691C8.35472 13.5215 8.47831 13.3893 8.72549 13.125L12.0151 9.67627C12.3328 9.33647 12.4917 9.16657 12.4994 9.02166C12.5062 8.89584 12.4529 8.77421 12.3557 8.69343C12.2438 8.60039 12.0105 8.60039 11.544 8.60039L4.45601 8.60039C3.98949 8.60039 3.75624 8.60039 3.64429 8.69343C3.54709 8.77421 3.49383 8.89584 3.50057 9.02167C3.50833 9.16657 3.66719 9.33647 3.98492 9.67627L7.27451 13.125Z" fill="currentColor" />
</svg>
